<?xml version="1.0" encoding="UTF-8"?>
<svg xmlns="http://www.w3.org/2000/svg" width="118" height="36" viewBox="0 0 118 36" fill="none">
  <path fill-rule="evenodd" clip-rule="evenodd" d="M13.2719 0H22.7281C30.058 0 36 5.94203 36 13.2719V22.7281C36 30.058 30.058 36 22.7281 36H13.2719C5.94203 36 0 30.058 0 22.7281V13.2719C0 5.94203 5.94203 0 13.2719 0ZM19.0767 10.3613C20.5503 9.27743 22.996 8.59614 25.797 10.289C29.476 12.5187 30.3121 19.8684 21.8254 26.0723C20.2054 27.2594 19.4007 27.8477 18.0001 27.8477C16.6187 27.8477 15.8168 27.2652 14.2405 26.1199L14.1748 26.0723C5.68814 19.8684 6.52427 12.5187 10.2032 10.289C13.0043 8.59614 15.4499 9.27743 16.9236 10.3613L16.9404 10.3738C17.5251 10.8094 17.8241 11.0323 18.0001 11.0323C18.1625 11.0323 18.421 10.8425 18.9272 10.4709C18.9748 10.436 19.0246 10.3994 19.0767 10.3613Z" fill="url(#paint0_linear_1_52)"></path>
  <path d="M62.9414 11.2275H54.9434V15.8418H62.165V19.958H54.9434V28H50.4023V6.99414H62.9414V11.2275ZM77.3133 11.7695H80.5945V27.9707H77.1521L76.7713 26.5205C75.2967 27.8096 73.5486 28.4541 71.5271 28.4541C69.9256 28.4541 68.4754 28.083 67.1766 27.3408C65.8777 26.5986 64.8621 25.5732 64.1297 24.2646C63.3973 22.9463 63.0311 21.4814 63.0311 19.8701C63.0311 18.2686 63.3973 16.8184 64.1297 15.5195C64.8621 14.2109 65.8777 13.1904 67.1766 12.458C68.4754 11.7158 69.9256 11.3447 71.5271 11.3447C73.5877 11.3447 75.3602 12.0039 76.8445 13.3223L77.3133 11.7695ZM68.7146 23.0488C69.5545 23.8887 70.6092 24.3086 71.8787 24.3086C73.1482 24.3086 74.198 23.8887 75.0281 23.0488C75.868 22.209 76.2879 21.1494 76.2879 19.8701C76.2879 18.5908 75.868 17.5312 75.0281 16.6914C74.198 15.8516 73.1482 15.4316 71.8787 15.4316C70.6092 15.4316 69.5545 15.8564 68.7146 16.7061C67.8846 17.5459 67.4695 18.6006 67.4695 19.8701C67.4695 21.1396 67.8846 22.1992 68.7146 23.0488ZM90.4107 28.4541C88.1256 28.4541 86.2799 27.7852 84.8736 26.4473C83.4771 25.1094 82.7789 23.3467 82.7789 21.1592V11.7988H87.1588V20.6611C87.1588 21.8135 87.4469 22.7168 88.023 23.3711C88.5992 24.0156 89.3951 24.3379 90.4107 24.3379C91.4264 24.3379 92.2174 24.0107 92.7838 23.3564C93.3502 22.7021 93.6334 21.8037 93.6334 20.6611V11.7988H98.0133V21.1592C98.0133 23.3467 97.3199 25.1094 95.9332 26.4473C94.5465 27.7852 92.7057 28.4541 90.4107 28.4541ZM109.412 11.418C111.247 11.418 112.707 12.0332 113.791 13.2637C114.875 14.4844 115.417 16.125 115.417 18.1855V28H111.037V18.8887C111.037 16.4668 110.095 15.2559 108.21 15.2559C107.087 15.2559 106.199 15.6367 105.544 16.3984C104.9 17.1504 104.578 18.1807 104.578 19.4893V28H100.198V11.7988H103.201L104.05 13.8057C104.675 13.0635 105.452 12.4824 106.379 12.0625C107.317 11.6328 108.328 11.418 109.412 11.418Z" fill="black"></path>
  <defs>
    <linearGradient id="paint0_linear_1_52" x1="0" y1="0" x2="36" y2="36" gradientUnits="userSpaceOnUse">
      <stop stop-color="#EE3A23"></stop>
      <stop offset="0.49" stop-color="#EE3A23"></stop>
      <stop offset="0.5" stop-color="#B7301F"></stop>
      <stop offset="1" stop-color="#EE3A23"></stop>
    </linearGradient>
  </defs>
</svg>
